<svg width="313" height="120" viewBox="0 0 313 120" fill="none" xmlns="http://www.w3.org/2000/svg">
<path d="M13.4942 119L1.27715 103.024C34.1258 63.4421 78.4481 48.4192 131.326 40.582C154.818 37.1003 179.957 35.0419 206.505 32.8681C209.997 32.5822 213.514 32.2943 217.054 32.0009C247.142 29.5071 278.929 26.6177 312 21.1789V119H13.4942Z" fill="#EACF61" stroke="#AE0032" stroke-width="2"/>
<path d="M301 102.661V6.02309L312 20.8308V117.046L301 102.661Z" fill="#EACF61" stroke="#AE0032" stroke-width="2"/>
<rect y="3" width="300" height="100" fill="#AE0032"/>
<path d="M25.6016 84V77.1641L29.6641 76.5781L47.75 27.125H59.4297L77.3984 76.5781L81.4609 77.1641V84H62.0859V77.1641L66.0312 76.4609L63.5312 68.6484H43.5312L41.0312 76.4609L44.9766 77.1641V84H25.6016ZM46.2266 60.25H60.8359L54.1953 40.7578L53.6484 39.0391H53.4141L52.8281 40.875L46.2266 60.25ZM85.25 84V77.1641L91.3047 75.9922V35.1719L85.25 34V27.125H91.3047H108.18L123.688 66.7734H123.922L138.922 27.125H161.891V34L155.797 35.1719V75.9922L161.891 77.1641V84H138.336V77.1641L144.703 75.9922V65.0938L144.898 39.4297L144.664 39.3906L127.672 83.2188H119.039L101.656 39.7422L101.422 39.7812L102.086 63.9219V75.9922L108.805 77.1641V84H85.25ZM192.008 84.8203C188.18 84.8203 184.69 84.1042 181.539 82.6719C178.388 81.2396 175.667 79.2344 173.375 76.6562C171.109 74.0521 169.365 71.0052 168.141 67.5156C166.917 64 166.305 60.1589 166.305 55.9922V55.1328C166.305 50.9922 166.917 47.1771 168.141 43.6875C169.365 40.1719 171.109 37.112 173.375 34.5078C175.641 31.9036 178.349 29.8854 181.5 28.4531C184.651 27.0208 188.141 26.3047 191.969 26.3047C195.823 26.3047 199.339 27.0208 202.516 28.4531C205.693 29.8854 208.427 31.9036 210.719 34.5078C213.01 37.112 214.768 40.1719 215.992 43.6875C217.242 47.1771 217.867 50.9922 217.867 55.1328V55.9922C217.867 60.1589 217.242 64 215.992 67.5156C214.768 71.0052 213.01 74.0521 210.719 76.6562C208.427 79.2344 205.693 81.2396 202.516 82.6719C199.365 84.1042 195.862 84.8203 192.008 84.8203ZM192.008 75.9531C195.237 75.9531 197.919 75.1198 200.055 73.4531C202.19 71.7865 203.792 69.4557 204.859 66.4609C205.953 63.4661 206.5 59.9766 206.5 55.9922V55.0547C206.5 51.1224 205.953 47.6719 204.859 44.7031C203.766 41.7083 202.138 39.3776 199.977 37.7109C197.841 36.0443 195.172 35.2109 191.969 35.2109C188.792 35.2109 186.148 36.0443 184.039 37.7109C181.93 39.3516 180.341 41.6562 179.273 44.625C178.232 47.5938 177.711 51.0703 177.711 55.0547V55.9922C177.711 59.9766 178.232 63.4661 179.273 66.4609C180.341 69.4557 181.93 71.7865 184.039 73.4531C186.174 75.1198 188.831 75.9531 192.008 75.9531ZM222.438 84V77.1641L228.492 75.9922V35.1719L222.438 34V27.125H249.391C253.766 27.125 257.516 27.8021 260.641 29.1562C263.766 30.5104 266.161 32.4505 267.828 34.9766C269.521 37.5026 270.367 40.5365 270.367 44.0781C270.367 47.4115 269.534 50.3932 267.867 53.0234C266.201 55.6536 263.883 57.724 260.914 59.2344C257.945 60.7448 254.521 61.513 250.641 61.5391H239.898V75.9922L245.992 77.1641V84H222.438ZM259.039 84L249.469 59.4297L259.742 56.8906L268.023 76.0312L272.867 77.1641V84H259.039ZM239.898 52.75H249.195C252.477 52.75 254.924 52.0599 256.539 50.6797C258.18 49.2734 259 47.2422 259 44.5859C259 41.9557 258.193 39.8594 256.578 38.2969C254.964 36.7083 252.568 35.9141 249.391 35.9141H239.898V52.75Z" fill="#EACF61"/>
</svg>
