<svg width="168" height="381" viewBox="0 0 168 381" fill="none" xmlns="http://www.w3.org/2000/svg">
<circle cx="6" cy="6" r="6" fill="#C70039"/>
<circle cx="32" cy="6" r="6" fill="#C70039"/>
<circle cx="58" cy="6" r="6" fill="#C70039"/>
<circle cx="84" cy="6" r="6" fill="#C70039"/>
<circle cx="110" cy="6" r="6" fill="#C70039"/>
<circle cx="136" cy="6" r="6" fill="#C70039"/>
<circle cx="162" cy="6" r="6" fill="#C70039"/>
<circle cx="6" cy="31" r="6" fill="#C70039"/>
<circle cx="32" cy="31" r="6" fill="#C70039"/>
<circle cx="58" cy="31" r="6" fill="#C70039"/>
<circle cx="84" cy="31" r="6" fill="#C70039"/>
<circle cx="110" cy="31" r="6" fill="#C70039"/>
<circle cx="136" cy="31" r="6" fill="#C70039"/>
<circle cx="162" cy="31" r="6" fill="#C70039"/>
<circle cx="6" cy="56" r="6" fill="#C70039"/>
<circle cx="32" cy="56" r="6" fill="#C70039"/>
<circle cx="58" cy="56" r="6" fill="#C70039"/>
<circle cx="84" cy="56" r="6" fill="#C70039"/>
<circle cx="110" cy="56" r="6" fill="#C70039"/>
<circle cx="136" cy="56" r="6" fill="#C70039"/>
<circle cx="162" cy="56" r="6" fill="#C70039"/>
<circle cx="6" cy="81" r="6" fill="#C70039"/>
<circle cx="32" cy="81" r="6" fill="#C70039"/>
<circle cx="58" cy="81" r="6" fill="#C70039"/>
<circle cx="84" cy="81" r="6" fill="#C70039"/>
<circle cx="110" cy="81" r="6" fill="#C70039"/>
<circle cx="136" cy="81" r="6" fill="#C70039"/>
<circle cx="162" cy="81" r="6" fill="#C70039"/>
<circle cx="6" cy="103" r="6" fill="#C70039"/>
<circle cx="32" cy="103" r="6" fill="#C70039"/>
<circle cx="58" cy="103" r="6" fill="#C70039"/>
<circle cx="84" cy="103" r="6" fill="#C70039"/>
<circle cx="110" cy="103" r="6" fill="#C70039"/>
<circle cx="136" cy="103" r="6" fill="#C70039"/>
<circle cx="162" cy="103" r="6" fill="#C70039"/>
<circle cx="6" cy="128" r="6" fill="#C70039"/>
<circle cx="32" cy="128" r="6" fill="#C70039"/>
<circle cx="58" cy="128" r="6" fill="#C70039"/>
<circle cx="84" cy="128" r="6" fill="#C70039"/>
<circle cx="110" cy="128" r="6" fill="#C70039"/>
<circle cx="136" cy="128" r="6" fill="#C70039"/>
<circle cx="162" cy="128" r="6" fill="#C70039"/>
<circle cx="6" cy="153" r="6" fill="#C70039"/>
<circle cx="32" cy="153" r="6" fill="#C70039"/>
<circle cx="58" cy="153" r="6" fill="#C70039"/>
<circle cx="84" cy="153" r="6" fill="#C70039"/>
<circle cx="110" cy="153" r="6" fill="#C70039"/>
<circle cx="136" cy="153" r="6" fill="#C70039"/>
<circle cx="162" cy="153" r="6" fill="#C70039"/>
<circle cx="6" cy="178" r="6" fill="#C70039"/>
<circle cx="32" cy="178" r="6" fill="#C70039"/>
<circle cx="58" cy="178" r="6" fill="#C70039"/>
<circle cx="84" cy="178" r="6" fill="#C70039"/>
<circle cx="110" cy="178" r="6" fill="#C70039"/>
<circle cx="136" cy="178" r="6" fill="#C70039"/>
<circle cx="162" cy="178" r="6" fill="#C70039"/>
<circle cx="6" cy="203" r="6" fill="#C70039"/>
<circle cx="32" cy="203" r="6" fill="#C70039"/>
<circle cx="58" cy="203" r="6" fill="#C70039"/>
<circle cx="84" cy="203" r="6" fill="#C70039"/>
<circle cx="110" cy="203" r="6" fill="#C70039"/>
<circle cx="136" cy="203" r="6" fill="#C70039"/>
<circle cx="162" cy="203" r="6" fill="#C70039"/>
<circle cx="6" cy="228" r="6" fill="#C70039"/>
<circle cx="32" cy="228" r="6" fill="#C70039"/>
<circle cx="58" cy="228" r="6" fill="#C70039"/>
<circle cx="84" cy="228" r="6" fill="#C70039"/>
<circle cx="110" cy="228" r="6" fill="#C70039"/>
<circle cx="136" cy="228" r="6" fill="#C70039"/>
<circle cx="162" cy="228" r="6" fill="#C70039"/>
<circle cx="6" cy="253" r="6" fill="#C70039"/>
<circle cx="32" cy="253" r="6" fill="#C70039"/>
<circle cx="58" cy="253" r="6" fill="#C70039"/>
<circle cx="84" cy="253" r="6" fill="#C70039"/>
<circle cx="110" cy="253" r="6" fill="#C70039"/>
<circle cx="136" cy="253" r="6" fill="#C70039"/>
<circle cx="162" cy="253" r="6" fill="#C70039"/>
<circle cx="6" cy="278" r="6" fill="#C70039"/>
<circle cx="32" cy="278" r="6" fill="#C70039"/>
<circle cx="58" cy="278" r="6" fill="#C70039"/>
<circle cx="84" cy="278" r="6" fill="#C70039"/>
<circle cx="110" cy="278" r="6" fill="#C70039"/>
<circle cx="136" cy="278" r="6" fill="#C70039"/>
<circle cx="162" cy="278" r="6" fill="#C70039"/>
<circle cx="6" cy="300" r="6" fill="#C70039"/>
<circle cx="32" cy="300" r="6" fill="#C70039"/>
<circle cx="58" cy="300" r="6" fill="#C70039"/>
<circle cx="84" cy="300" r="6" fill="#C70039"/>
<circle cx="110" cy="300" r="6" fill="#C70039"/>
<circle cx="136" cy="300" r="6" fill="#C70039"/>
<circle cx="162" cy="300" r="6" fill="#C70039"/>
<circle cx="6" cy="325" r="6" fill="#C70039"/>
<circle cx="32" cy="325" r="6" fill="#C70039"/>
<circle cx="58" cy="325" r="6" fill="#C70039"/>
<circle cx="84" cy="325" r="6" fill="#C70039"/>
<circle cx="110" cy="325" r="6" fill="#C70039"/>
<circle cx="136" cy="325" r="6" fill="#C70039"/>
<circle cx="162" cy="325" r="6" fill="#C70039"/>
<circle cx="6" cy="350" r="6" fill="#C70039"/>
<circle cx="32" cy="350" r="6" fill="#C70039"/>
<circle cx="58" cy="350" r="6" fill="#C70039"/>
<circle cx="84" cy="350" r="6" fill="#C70039"/>
<circle cx="110" cy="350" r="6" fill="#C70039"/>
<circle cx="136" cy="350" r="6" fill="#C70039"/>
<circle cx="162" cy="350" r="6" fill="#C70039"/>
<circle cx="6" cy="375" r="6" fill="#C70039"/>
<circle cx="32" cy="375" r="6" fill="#C70039"/>
<circle cx="58" cy="375" r="6" fill="#C70039"/>
<circle cx="84" cy="375" r="6" fill="#C70039"/>
<circle cx="110" cy="375" r="6" fill="#C70039"/>
<circle cx="136" cy="375" r="6" fill="#C70039"/>
<circle cx="162" cy="375" r="6" fill="#C70039"/>
</svg>
