<svg width="496" height="110" viewBox="0 0 496 110" fill="none" xmlns="http://www.w3.org/2000/svg">
<path d="M5.33064 105C6.86579 93.3794 13.7229 81.8618 25.4081 70.8167C38.7514 58.2041 57.9674 46.637 81.13 36.822C127.435 17.2003 188.515 5 247 5C305.487 5 367.073 17.2009 413.888 36.8293C437.305 46.6479 456.773 58.2201 470.304 70.8395C482.154 81.8917 489.105 93.4027 490.664 105H490.186H489.665H489.145H488.626H488.109H487.593H487.078H486.564H486.051H485.54H485.029H484.52H484.012H483.505H482.999H482.495H481.991H481.489H480.988H480.488H479.988H479.491H478.994H478.498H478.003H477.51H477.017H476.526H476.035H475.546H475.058H474.57H474.084H473.599H473.115H472.631H472.149H471.668H471.188H470.709H470.23H469.753H469.277H468.801H468.327H467.854H467.381H466.909H466.439H465.969H465.5H465.032H464.565H464.099H463.634H463.17H462.706H462.244H461.782H461.321H460.861H460.402H459.944H459.487H459.03H458.574H458.119H457.665H457.212H456.759H456.307H455.856H455.406H454.957H454.508H454.06H453.613H453.167H452.721H452.276H451.832H451.388H450.946H450.504H450.062H449.622H449.182H448.743H448.304H447.866H447.429H446.992H446.556H446.121H445.686H445.252H444.819H444.386H443.954H443.523H443.092H442.662H442.232H441.803H441.374H440.946H440.519H440.092H439.666H439.24H438.815H438.39H437.966H437.542H437.119H436.697H436.275H435.853H435.432H435.011H434.591H434.172H433.752H433.334H432.916H432.498H432.08H431.663H431.247H430.831H430.415H430H429.585H429.171H428.757H428.343H427.93H427.517H427.104H426.692H426.28H425.869H425.458H425.047H424.636H424.226H423.816H423.407H422.998H422.589H422.18H421.772H421.364H420.956H420.549H420.141H419.734H419.328H418.921H418.515H418.109H417.703H417.297H416.892H416.487H416.082H415.677H415.273H414.868H414.464H414.06H413.656H413.252H412.849H412.445H412.042H411.639H411.236H410.833H410.43H410.027H409.624H409.222H408.819H408.417H408.015H407.613H407.21H406.808H406.406H406.004H405.602H405.2H404.798H404.396H403.994H403.593H403.191H402.789H402.387H401.985H401.583H401.181H400.779H400.377H399.975H399.573H399.17H398.768H398.366H397.963H397.561H397.158H396.755H396.352H395.949H395.546H395.143H394.74H394.336H393.933H393.529H393.125H392.721H392.316H391.912H391.507H391.103H390.698H390.292H389.887H389.481H389.075H388.669H388.263H387.857H387.45H387.043H386.635H386.228H385.82H385.412H385.004H384.595H384.186H383.777H383.367H382.957H382.547H382.136H381.726H381.314H380.903H380.491H380.079H379.666H379.253H378.84H378.426H378.012H377.597H377.182H376.767H376.351H375.935H375.518H375.101H374.684H374.266H373.848H373.429H373.01H372.59H372.17H371.749H371.328H370.906H370.484H370.061H369.638H369.214H368.79H368.365H367.94H367.514H367.088H366.661H366.233H365.805H365.377H364.947H364.517H364.087H363.656H363.224H362.792H362.359H361.926H361.492H361.057H360.621H360.185H359.749H359.311H358.873H358.435H357.995H357.555H357.114H356.673H356.231H355.788H355.344H354.9H354.455H354.009H353.562H353.115H352.667H352.218H351.769H351.318H350.867H350.415H349.962H349.509H349.055H348.599H348.143H347.687H347.229H346.771H346.311H345.851H345.39H344.928H344.465H344.002H343.537H343.072H342.606H342.139H341.67H341.201H340.732H340.261H339.789H339.316H338.843H338.368H337.892H337.416H336.938H336.46H335.98H335.5H335.019H334.536H334.053H333.568H333.083H332.596H332.109H331.62H331.131H330.64H330.148H329.656H329.162H328.667H328.171H327.674H327.176H326.676H326.176H325.675H325.172H324.668H324.163H323.657H323.15H322.642H322.132H321.622H321.11H320.597H320.083H319.568H319.051H318.534H318.015H317.494H316.973H316.451H315.927H315.402H314.875H314.348H313.819H313.289H312.758H312.225H311.691H311.156H310.62H310.082H309.543H309.003H308.461H307.918H307.373H306.828H306.281H305.732H305.183H304.632H304.079H303.525H302.97H302.413H301.855H301.296H300.735H300.173H299.609H299.044H298.478H297.91H297.341H296.77H296.198H295.624H295.049H294.472H293.894H293.314H292.733H292.15H291.566H290.981H290.394H289.805H289.215H288.623H288.03H287.435H286.838H286.24H285.641H285.04H284.437H283.833H283.227H282.619H282.01H281.4H280.787H280.173H279.558H278.941H278.322H277.701H277.079H276.456H275.83H275.203H274.574H273.944H273.311H272.677H272.042H271.405H270.766H270.125H269.482H268.838H268.192H267.544H266.895H266.244H265.591H264.936H264.279H263.621H262.961H262.299H261.635H260.97H260.302H259.633H258.962H258.289H257.615H256.938H256.26H255.579H254.897H254.213H253.527H252.84H252.15H251.458H250.767H250.077H249.389H248.704H248.02H247.338H246.658H245.979H245.303H244.628H243.956H243.285H242.616H241.949H241.283H240.62H239.958H239.299H238.64H237.984H237.33H236.677H236.026H235.377H234.73H234.084H233.44H232.798H232.158H231.519H230.882H230.247H229.614H228.982H228.352H227.724H227.097H226.472H225.849H225.227H224.607H223.989H223.372H222.757H222.143H221.531H220.921H220.313H219.706H219.1H218.497H217.894H217.294H216.695H216.097H215.501H214.907H214.314H213.723H213.133H212.545H211.958H211.373H210.789H210.207H209.626H209.047H208.469H207.893H207.318H206.745H206.173H205.602H205.033H204.466H203.899H203.335H202.771H202.209H201.649H201.09H200.532H199.976H199.421H198.867H198.315H197.764H197.214H196.666H196.119H195.573H195.029H194.486H193.944H193.404H192.865H192.327H191.791H191.256H190.722H190.189H189.657H189.127H188.598H188.07H187.544H187.019H186.494H185.972H185.45H184.929H184.41H183.892H183.375H182.859H182.345H181.831H181.319H180.807H180.297H179.788H179.281H178.774H178.268H177.764H177.26H176.758H176.257H175.757H175.257H174.759H174.262H173.766H173.271H172.777H172.285H171.793H171.302H170.812H170.323H169.835H169.348H168.863H168.378H167.894H167.411H166.929H166.447H165.967H165.488H165.01H164.532H164.056H163.58H163.106H162.632H162.159H161.687H161.216H160.745H160.276H159.807H159.34H158.873H158.407H157.941H157.477H157.013H156.551H156.089H155.627H155.167H154.707H154.248H153.79H153.333H152.876H152.42H151.965H151.511H151.057H150.604H150.152H149.7H149.25H148.799H148.35H147.901H147.453H147.006H146.559H146.113H145.667H145.222H144.778H144.334H143.891H143.449H143.007H142.566H142.125H141.685H141.246H140.807H140.369H139.931H139.494H139.057H138.621H138.186H137.75H137.316H136.882H136.448H136.015H135.583H135.151H134.719H134.288H133.857H133.427H132.998H132.568H132.139H131.711H131.283H130.855H130.428H130.002H129.575H129.149H128.724H128.298H127.874H127.449H127.025H126.601H126.178H125.755H125.332H124.91H124.487H124.066H123.644H123.223H122.802H122.381H121.961H121.541H121.121H120.702H120.282H119.863H119.444H119.026H118.608H118.189H117.771H117.354H116.936H116.519H116.102H115.685H115.268H114.851H114.435H114.018H113.602H113.186H112.77H112.354H111.939H111.523H111.108H110.692H110.277H109.862H109.447H109.032H108.617H108.202H107.787H107.372H106.957H106.542H106.128H105.713H105.298H104.883H104.469H104.054H103.639H103.224H102.81H102.395H101.98H101.565H101.15H100.735H100.32H99.9047H99.4894H99.0741H98.6586H98.2431H97.8274H97.4116H96.9957H96.5796H96.1635H95.7471H95.3307H94.914H94.4973H94.0803H93.6632H93.2458H92.8283H92.4106H91.9927H91.5746H91.1563H90.7377H90.3189H89.8999H89.4807H89.0611H88.6414H88.2213H87.801H87.3804H86.9596H86.5384H86.117H85.6952H85.2732H84.8508H84.4281H84.0051H83.5817H83.158H82.7339H82.3095H81.8847H81.4596H81.034H80.6081H80.1818H79.7551H79.328H78.9005H78.4726H78.0443H77.6155H77.1863H76.7566H76.3265H75.8959H75.4649H75.0334H74.6014H74.169H73.736H73.3026H72.8686H72.4342H71.9992H71.5637H71.1277H70.6911H70.254H69.8164H69.3782H68.9394H68.5H68.0601H67.6196H67.1785H66.7368H66.2945H65.8516H65.4081H64.9639H64.5192H64.0738H63.6277H63.181H62.7336H62.2856H61.8369H61.3875H60.9375H60.4867H60.0353H59.5832H59.1303H58.6767H58.2224H57.7674H57.3116H56.8551H56.3979H55.9399H55.4811H55.0215H54.5612H54.1001H53.6382H53.1755H52.712H52.2477H51.7826H51.3167H50.8499H50.3823H49.9138H49.4445H48.9743H48.5033H48.0314H47.5586H47.085H46.6104H46.135H45.6586H45.1814H44.7032H44.2241H43.7441H43.2631H42.7812H42.2983H41.8145H41.3297H40.844H40.3573H39.8696H39.3809H38.8912H38.4005H37.9087H37.416H36.9223H36.4275H35.9317H35.4348H34.9369H34.4379H33.9379H33.4368H32.9346H32.4313H31.927H31.4215H30.915H30.4073H29.8985H29.3886H28.8776H28.3654H27.8521H27.3376H26.822H26.3052H25.7872H25.2681H24.7478H24.2263H23.7036H23.1796H22.6545H22.1282H21.6006H21.0718H20.5418H20.0105H19.478H18.9442H18.4092H17.8728H17.3353H16.7964H16.2562H15.7147H15.172H14.6279H14.0825H13.5358H12.9877H12.4383H11.8876H11.3355H10.7821H10.2273H9.67111H9.11356H8.55462H7.9943H7.43258H6.86945H6.30491H5.73896H5.33064Z" fill="#F07300" stroke="#AE0032" stroke-width="10"/>
</svg>
