<svg width="313" height="120" viewBox="0 0 313 120" fill="none" xmlns="http://www.w3.org/2000/svg">
<path d="M13.4942 119L1.27715 103.024C34.1258 63.4421 78.4481 48.4192 131.326 40.582C154.818 37.1003 179.957 35.0419 206.505 32.8681C209.997 32.5822 213.514 32.2943 217.054 32.0009C247.142 29.5071 278.929 26.6177 312 21.1789V119H13.4942Z" fill="#EACF61" stroke="#AE0032" stroke-width="2"/>
<path d="M301 102.661V6.02309L312 20.8308V117.046L301 102.661Z" fill="#EACF61" stroke="#AE0032" stroke-width="2"/>
<rect y="3" width="300" height="100" fill="#AE0032"/>
<path d="M40.1875 84V77.1641L46.2422 75.9922V35.1719L40.1875 34V27.125H63.7422V34L57.6484 35.1719V51.5781H80.8516V35.1719L74.7578 34V27.125H80.8516H92.2188H98.3125V34L92.2188 35.1719V75.9922L98.3125 77.1641V84H74.7578V77.1641L80.8516 75.9922V60.3672H57.6484V75.9922L63.7422 77.1641V84H40.1875ZM128.742 84.8203C124.914 84.8203 121.424 84.1042 118.273 82.6719C115.122 81.2396 112.401 79.2344 110.109 76.6562C107.844 74.0521 106.099 71.0052 104.875 67.5156C103.651 64 103.039 60.1589 103.039 55.9922V55.1328C103.039 50.9922 103.651 47.1771 104.875 43.6875C106.099 40.1719 107.844 37.112 110.109 34.5078C112.375 31.9036 115.083 29.8854 118.234 28.4531C121.385 27.0208 124.875 26.3047 128.703 26.3047C132.557 26.3047 136.073 27.0208 139.25 28.4531C142.427 29.8854 145.161 31.9036 147.453 34.5078C149.745 37.112 151.503 40.1719 152.727 43.6875C153.977 47.1771 154.602 50.9922 154.602 55.1328V55.9922C154.602 60.1589 153.977 64 152.727 67.5156C151.503 71.0052 149.745 74.0521 147.453 76.6562C145.161 79.2344 142.427 81.2396 139.25 82.6719C136.099 84.1042 132.596 84.8203 128.742 84.8203ZM128.742 75.9531C131.971 75.9531 134.654 75.1198 136.789 73.4531C138.924 71.7865 140.526 69.4557 141.594 66.4609C142.688 63.4661 143.234 59.9766 143.234 55.9922V55.0547C143.234 51.1224 142.688 47.6719 141.594 44.7031C140.5 41.7083 138.872 39.3776 136.711 37.7109C134.576 36.0443 131.906 35.2109 128.703 35.2109C125.526 35.2109 122.883 36.0443 120.773 37.7109C118.664 39.3516 117.076 41.6562 116.008 44.625C114.966 47.5938 114.445 51.0703 114.445 55.0547V55.9922C114.445 59.9766 114.966 63.4661 116.008 66.4609C117.076 69.4557 118.664 71.7865 120.773 73.4531C122.909 75.1198 125.565 75.9531 128.742 75.9531ZM159.172 84V77.1641L165.227 75.9922V35.1719L159.172 34V27.125H165.227H176.633H183.508V34L176.633 35.1719V75.25H192.688L193.234 66.9297H201.945V84H159.172ZM205.461 84V77.1641L209.523 76.5781L227.609 27.125H239.289L257.258 76.5781L261.32 77.1641V84H241.945V77.1641L245.891 76.4609L243.391 68.6484H223.391L220.891 76.4609L224.836 77.1641V84H205.461ZM226.086 60.25H240.695L234.055 40.7578L233.508 39.0391H233.273L232.688 40.875L226.086 60.25Z" fill="#EACF61"/>
</svg>
