<svg width="135" height="129" viewBox="0 0 135 129" fill="none" xmlns="http://www.w3.org/2000/svg">
<path d="M27.9013 33.9267C23.1595 23.8857 17.3412 14.5311 9.97577 7.1785C24.55 6.69555 36.1195 9.65649 45.3342 14.5267C56.4919 20.4236 64.4887 29.2752 70.2122 38.8402C81.7461 58.1155 83.7462 79.7935 83.7462 83.8543V84.3957L83.8901 84.9176C85.1054 89.3252 85.7163 92.4492 85.9208 94.6376C86.0595 96.1228 85.9888 96.9702 85.9104 97.406C85.507 97.4158 84.8795 97.3697 83.8444 97.2424C83.7065 97.2254 83.5608 97.207 83.4081 97.1876C82.2521 97.041 80.7005 96.8443 79.1784 96.8784C77.3821 96.9185 75.227 97.2729 73.2209 98.6137C69.5095 101.094 67.8376 105.813 67.5526 112.581C67.2265 112.846 66.8743 113.15 66.4913 113.499C64.6906 115.14 61.9205 118.046 57.629 123.27C57.309 122.922 56.9421 122.451 56.5367 121.821C55.1137 119.609 53.6732 116.181 52.1609 111.57C50.1904 105.561 48.2914 98.1904 46.1652 89.9378C45.0196 85.4908 43.8079 80.7878 42.4836 75.9042C38.7524 62.1445 34.1965 47.2573 27.9013 33.9267Z" fill="#0BE93C" stroke="#1AB73C" stroke-width="8"/>
<path d="M74.6824 10.2279C74.6842 10.2043 74.686 10.1807 74.6879 10.1571C95.244 35.5017 103.374 51.57 106.131 61.7832C107.622 67.3022 107.519 71.028 107.028 73.5712C106.619 75.6845 105.954 77.0734 105.282 78.4755C105.121 78.8119 104.959 79.1491 104.801 79.4973L104.567 80.0119L104.485 80.5711C103.999 83.8667 103.49 86.064 103.002 87.4899C102.9 87.789 102.805 88.0357 102.719 88.2379C102.559 88.1454 102.381 88.0396 102.18 87.9177C102.092 87.8644 101.997 87.8069 101.898 87.746C101.14 87.2838 100.065 86.6279 98.9365 86.1431C97.601 85.5695 95.8294 85.0639 93.8028 85.3527C90.1011 85.8802 87.3271 88.7021 85.0453 93.008C84.8557 93.0588 84.6579 93.1148 84.4513 93.1764C82.6689 93.7075 79.88 94.7572 75.4303 96.8101C75.2293 96.5127 75.0113 96.1365 74.7834 95.6612C74.0248 94.0797 73.3531 91.8041 72.8229 88.7927C71.7646 82.7819 71.3979 74.6183 71.5047 65.0407C71.6861 48.7877 73.2144 29.1192 74.6824 10.2279Z" fill="#0BE93C" stroke="#1AB73C" stroke-width="8"/>
</svg>
