<svg width="210" height="256" viewBox="0 0 210 256" fill="none" xmlns="http://www.w3.org/2000/svg">
<path d="M189.701 157.307C218.244 193.483 168.007 202.084 132.402 211.555C96.7974 221.027 43.3708 283.87 51.5539 226.704C46.8446 152.809 35.1913 35.2767 70.7963 25.8052C106.401 16.3336 176.695 104.047 189.701 157.307Z" fill="white"/>
<path d="M189.701 157.307C218.244 193.483 168.007 202.084 132.402 211.555C96.7974 221.027 43.3708 283.87 51.5539 226.704C46.8446 152.809 35.1913 35.2767 70.7963 25.8052C106.401 16.3336 176.695 104.047 189.701 157.307Z" fill="white"/>
<path d="M189.701 157.307C218.244 193.483 168.007 202.084 132.402 211.555C96.7974 221.027 43.3708 283.87 51.5539 226.704C46.8446 152.809 35.1913 35.2767 70.7963 25.8052C106.401 16.3336 176.695 104.047 189.701 157.307Z" stroke="#A6A6A6" stroke-width="16"/>
<path d="M144.824 180.048C155.935 194.13 136.379 197.478 122.519 201.165C108.659 204.852 87.8613 229.316 91.0468 207.062C89.2135 178.297 84.6772 132.544 98.5374 128.857C112.398 125.17 139.761 159.315 144.824 180.048Z" fill="#AE0032"/>
<path d="M144.824 180.048C155.935 194.13 136.379 197.478 122.519 201.165C108.659 204.852 87.8613 229.316 91.0468 207.062C89.2135 178.297 84.6772 132.544 98.5374 128.857C112.398 125.17 139.761 159.315 144.824 180.048Z" fill="#AE0032"/>
</svg>
